<?xml version="1.0" encoding="UTF-8"?>
<svg xmlns="http://www.w3.org/2000/svg" xmlns:xlink="http://www.w3.org/1999/xlink" version="1.1" viewBox="0 0 675.2 187.1">
  <defs>
    <style>
      .cls-1 {
        fill: #2c0072;
      }

      .cls-2 {
        fill: url(#linear-gradient-8);
      }

      .cls-3 {
        fill: url(#linear-gradient-7);
      }

      .cls-4 {
        fill: url(#linear-gradient-5);
      }

      .cls-5 {
        fill: url(#linear-gradient-6);
      }

      .cls-6 {
        fill: url(#linear-gradient-4);
      }

      .cls-7 {
        fill: url(#linear-gradient-3);
      }

      .cls-8 {
        fill: url(#linear-gradient-2);
      }

      .cls-9 {
        fill: url(#linear-gradient);
      }
    </style>
    <linearGradient id="linear-gradient" x1="93.6" y1="-25.7" x2="93.6" y2="204.6" gradientTransform="translate(0 190) scale(1 -1)" gradientUnits="userSpaceOnUse">
      <stop offset="0" stop-color="#322c73"/>
      <stop offset="1" stop-color="#c81665"/>
    </linearGradient>
    <linearGradient id="linear-gradient-2" x1="66.7" y1="-25.7" x2="66.7" y2="204.6" gradientTransform="translate(0 190) scale(1 -1)" gradientUnits="userSpaceOnUse">
      <stop offset="0" stop-color="#322c73"/>
      <stop offset="1" stop-color="#c81665"/>
    </linearGradient>
    <linearGradient id="linear-gradient-3" x1="121.2" y1="-25.7" x2="121.2" y2="204.6" gradientTransform="translate(0 190) scale(1 -1)" gradientUnits="userSpaceOnUse">
      <stop offset="0" stop-color="#322c73"/>
      <stop offset="1" stop-color="#c81665"/>
    </linearGradient>
    <linearGradient id="linear-gradient-4" x1="93.8" y1="-25.7" x2="93.8" y2="204.6" gradientTransform="translate(0 190) scale(1 -1)" gradientUnits="userSpaceOnUse">
      <stop offset="0" stop-color="#322c73"/>
      <stop offset="1" stop-color="#c81665"/>
    </linearGradient>
    <linearGradient id="linear-gradient-5" x1="52.9" y1="-25.7" x2="52.9" y2="204.6" gradientTransform="translate(0 190) scale(1 -1)" gradientUnits="userSpaceOnUse">
      <stop offset="0" stop-color="#322c73"/>
      <stop offset="1" stop-color="#c81665"/>
    </linearGradient>
    <linearGradient id="linear-gradient-6" x1="134" y1="-25.7" x2="134" y2="204.6" gradientTransform="translate(0 190) scale(1 -1)" gradientUnits="userSpaceOnUse">
      <stop offset="0" stop-color="#322c73"/>
      <stop offset="1" stop-color="#c81665"/>
    </linearGradient>
    <linearGradient id="linear-gradient-7" x1="75.5" y1="-25.7" x2="75.5" y2="204.6" gradientTransform="translate(0 190) scale(1 -1)" gradientUnits="userSpaceOnUse">
      <stop offset="0" stop-color="#322c73"/>
      <stop offset="1" stop-color="#c81665"/>
    </linearGradient>
    <linearGradient id="linear-gradient-8" x1="113.3" y1="-25.7" x2="113.3" y2="204.6" gradientTransform="translate(0 190) scale(1 -1)" gradientUnits="userSpaceOnUse">
      <stop offset="0" stop-color="#322c73"/>
      <stop offset="1" stop-color="#c81665"/>
    </linearGradient>
  </defs>
  <!-- Generator: Adobe Illustrator 28.7.4, SVG Export Plug-In . SVG Version: 1.2.0 Build 166)  -->
  <g>
    <g id="Layer_1">
      <g>
        <path class="cls-9" d="M53.3,125.3v-2.5c0-9.8,0-19.6,0-29.4,0-1.6.6-3.2,1.2-4.6.9-2.3,2.2-4.5,3.1-6.7,2.6-6.1,2.4-12.2-.1-18.2-1-2.4-2.2-4.7-3.3-7-.4-1-.7-2-.7-3,.5-19.5,13.8-36.2,32.9-40.3,22.4-4.9,45.1,9.6,48.8,32.7.4,2.6.2,5.3.1,7.9,0,.8-.4,1.6-.8,2.4-1.1,2.3-2.4,4.5-3.4,6.8-3,6.7-2.9,13.4,0,20.1.3.7.5,1.4.9,2,2.4,3.8,2.8,8,2.7,12.4-.2,8.6,0,17.1-.1,25.7,0,1.6.5,2,2,2,5.2,0,10.5,0,15.7,0,1,0,1.5-.3,2-1.1,1.5-2.2,4.3-2.9,6.9-2.1,2.6.9,4.1,3.1,4.1,5.9,0,2.6-1.6,4.7-4.1,5.6-2.6.9-5.5.1-6.9-2.1-.6-.9-1.3-1.1-2.2-1.1-6.5,0-13,0-19.4,0s-3.4-.9-3.4-3.4c0-11.3,0-22.5,0-33.8,0-1-.4-2-.8-2.9-2.2-4.8-4.4-9.5-4.9-14.8-.8-7.8,2-14.6,5.9-21.1.5-.8.8-1.7.8-2.6-.2-16.8-12.8-31-29.6-33.6-19.3-2.9-36.8,9.5-40.8,28.9,0,.4-.1.8-.2,1.2-.9,3.4-.6,6.5,1.1,9.7,3.2,6.2,5.2,12.9,3.4,19.9-1.1,4.4-3.2,8.5-4.8,12.8-.3.9-.7,1.9-.7,2.9,0,11.2,0,22.3,0,33.5,0,2.7-.8,3.5-3.5,3.5-6.7,0-13.4,0-20.1,0-.7,0-1.6.5-2,1-2.3,2.8-6.8,3.2-9.4.8-2.6-2.4-2.6-6.5.1-9,2.6-2.4,6.9-2,9.2.7.4.5,1.2,1.1,1.8,1.1,5.8,0,11.6,0,17.4,0,.3,0,.5,0,1.1-.1h0Z"/>
        <path class="cls-8" d="M78.4,149.4v-3.1c0-17.9,0-35.7,0-53.6,0-1.6.3-2.8,2.1-3.2,2-.4,3.4.8,3.4,3.1,0,7.6,0,15.1,0,22.7,0,11.6,0,23.2,0,34.8,0,.6,0,1.1,0,1.7-.1,2-1.1,3-3.1,3-5.9,0-11.8,0-17.8,0-1.1,0-1.8.3-2.5,1.2-2.1,2.8-6.5,3.1-9.2.7-2.6-2.4-2.7-6.2-.3-8.7s6.8-2.6,9.1.2c.9,1.1,1.8,1.4,3.2,1.4,4.4,0,8.9,0,13.3,0,.5,0,1,0,1.6-.1Z"/>
        <path class="cls-7" d="M109.3,149.5h7.1c2.9,0,5.9,0,8.8,0,.7,0,1.5-.5,1.9-1,1.7-2.1,4.5-3,7-2.2,2.6.9,4.3,3.3,4.3,5.9,0,2.6-1.8,4.9-4.4,5.8-2.5.8-5.3-.1-7-2.2-.4-.5-1.3-.9-2-1-5.8,0-11.5,0-17.2,0s-3.8-.7-3.8-3.9c0-17.9,0-35.7,0-53.6,0-1.6,0-3.2,0-4.7,0-2.1,1-3.2,2.7-3.1,1.7,0,2.6,1.1,2.6,3.2,0,17.1,0,34.3,0,51.4v5.5Z"/>
        <path class="cls-6" d="M96.6,126.2c0,11.1,0,22.3,0,33.4,0,1.1.2,1.9,1.2,2.7,3,2.1,3.4,6.4.9,9.1-2.6,2.8-7.1,2.9-9.7.2-2.6-2.7-2.4-6.9.6-9.1,1.1-.8,1.4-1.6,1.4-2.9,0-21.9,0-43.8,0-65.7,0-.6,0-1.1,0-1.7.1-1.7,1.2-2.7,2.8-2.7,1.6,0,2.5,1,2.6,2.7,0,2.9,0,5.9,0,8.8v25.2h0Z"/>
        <path class="cls-4" d="M65.8,137.3v-2.2c0-14.1,0-28.2,0-42.2,0-1,.5-2.3,1.2-2.9.6-.5,1.9-.5,2.8-.2,1.2.4,1.5,1.5,1.5,2.8,0,7.4,0,14.8,0,22.1s0,16.1,0,24.2-.8,3.8-3.9,3.8c-6.4,0-12.7,0-19.1,0-1.1,0-1.8.2-2.6,1.2-1.7,2.1-4.5,2.8-7,1.9-2.4-.8-3.9-2.5-4.1-5-.2-2.7.8-4.7,3.2-6.1,2.6-1.5,6-.9,8,1.4.8.9,1.6,1.2,2.7,1.2,5.1,0,10.2,0,15.4,0h2Z"/>
        <path class="cls-5" d="M122.1,137.3h1.7c4.3,0,8.7,0,13,0,1.7,0,3.1-.1,4.4-1.7,2.3-2.6,6.5-2.3,8.9.3,2.3,2.6,2.1,6.4-.4,8.6-2.7,2.3-6.9,2.1-9-.8-.7-1-1.5-1.2-2.6-1.2-6.1,0-12.2,0-18.2,0-2.3,0-3.2-.9-3.2-3.1,0-15.5,0-31.1,0-46.6,0-1,.4-2.2,1.1-2.8.6-.5,2.1-.7,2.8-.3.8.4,1.4,1.6,1.5,2.5.1,4.4,0,8.8,0,13.2,0,10,0,20.1,0,30.1,0,.5,0,1,0,1.8h0Z"/>
        <path class="cls-3" d="M81.8,61c0,3.5-2.8,6.2-6.4,6.2s-6.2-2.8-6.1-6.1c0-3.6,2.8-6.4,6.3-6.3,3.5,0,6.2,2.8,6.2,6.2h0Z"/>
        <path class="cls-2" d="M113.3,54.7c3.5,0,6.2,2.7,6.3,6.2,0,3.4-2.9,6.4-6.3,6.3-3.4,0-6.2-2.8-6.2-6.1,0-3.6,2.7-6.4,6.2-6.4Z"/>
      </g>
      <g>
        <path class="cls-1" d="M660.8,45.3v10.1h-2.5c-11.3,0-22.6,0-33.8,0-5,0-8,3.5-7.1,8.2.5,2.5,1.9,4,4.3,4.5,1.1.2,2.2.3,3.3.3,8.2,0,16.3-.2,24.5,0,7.1.2,12.8,3.2,15.4,10.1,2.5,6.6,1.8,13-3.2,18.4-3.1,3.4-7.2,5.2-11.7,5.2-13.9.2-27.8,0-41.6,0-.2,0-.4,0-.8-.2v-10.2h2.7c12.5,0,25.1,0,37.6,0,1.3,0,2.7-.1,3.9-.5,2.8-.9,4.3-3.4,4.1-6.4-.2-3-1.9-5.2-4.8-5.9-1-.2-2.1-.3-3.1-.3-8.1,0-16.2,0-24.3,0-13.2-.1-19.1-11.2-16.1-22,1.8-6.4,8.2-11.6,15-11.8,12.5-.2,25.1,0,37.6,0,.1,0,.3,0,.5.2h0Z"/>
        <path class="cls-1" d="M225.2,103.1c-3.3,0-6.5.1-9.8,0-12.8-.6-22.2-10.3-22.6-23.2-.1-4.2-.1-8.5,0-12.7.3-11.5,8.6-21.2,20-22.3,7.8-.8,15.8-.9,23.5,0,12.3,1.2,20.4,10.9,20.5,23.2,0,5.3.4,10.7-.3,16-1.4,10.9-11.3,19-22.6,19.2-2.9,0-5.8,0-8.7,0h0s0,0,0,0ZM224.8,92.9h0c2.6,0,5.2,0,7.8,0,8.5-.2,14-5.7,14-14.2,0-3.3,0-6.7,0-10,0-8.2-5.4-14-13.6-14.2-5.5-.2-11-.1-16.4,0-7.8.2-13.1,5.7-13.2,13.5,0,3.6,0,7.3,0,10.9,0,8.4,5.2,13.7,13.7,13.9,2.6,0,5.2,0,7.8,0h0Z"/>
        <path class="cls-1" d="M424.5,103h-8.7c-13,0-23.2-10.2-23.2-23.2s-.3-11,.5-16.4c1.6-11.2,11.2-19.1,22.5-19.2,5.7,0,11.4,0,17.1,0,13.8,0,24,10.3,24,24.1,0,3.6,0,7.3,0,10.9,0,13.5-9.9,23.4-23.4,23.7-3,0-5.9,0-8.9,0h0ZM424.5,54.7v-.2c-2.8,0-5.5,0-8.2,0-6.8,0-12.2,4.3-13,11-.6,4.7-.4,9.5-.4,14.2,0,7.7,5.4,13,13,13.2,5.7.1,11.4.1,17.1,0,7.9-.2,13.3-5.8,13.4-13.7,0-3.7,0-7.4,0-11.1,0-6.9-4.6-12.3-11.4-13.2-3.4-.4-7,0-10.4,0h0Z"/>
        <path class="cls-1" d="M468,102.3v-3.2c0-12.9,0-25.8,0-38.7,0-9.3,6-15.3,15.3-15.3,8.2,0,16.5,0,24.7,0,11.1,0,18.9,7.4,19.4,18.6.1,2.7,0,5.5-.3,8.2-1.3,9.6-8.5,16.1-18.2,16.3-8.2.2-16.5,0-24.7,0s-.7,0-1.2-.1v-10.1c.8,0,1.6-.1,2.3-.1,7.2,0,14.4,0,21.6,0s9.9-3.5,10-9.9c0-1.3,0-2.7,0-4-.3-5.2-3.8-8.5-8.9-8.5-7.9,0-15.9,0-23.8,0-4.2,0-5.6,1.5-5.6,5.6v41.2h-10.6Z"/>
        <path class="cls-1" d="M585.4,91.9v-46.7h10.2c0,.8.1,1.6.1,2.4,0,15.8,0,31.6,0,47.4,0,5.4-2.1,7.3-7.4,7.3-7.9,0-15.9.2-23.8,0-15.5-.4-28.6-11.4-28.2-28.6.2-8.6,0-17.2,0-25.8v-2.8h10.4v4.2c0,7.9,0,15.7,0,23.6,0,11.1,6.1,18,17.1,18.8,6.5.5,13,.2,19.6.2.6,0,1.2,0,2.1-.2h0Z"/>
        <path class="cls-1" d="M321.4,45.2v10.2h-37.4c-4.7,0-6.1,1.4-6.1,6.1,0,8.1,0,16.2,0,24.3,0,5.2,1.2,6.3,6.5,6.3,11.4,0,22.9,0,34.3,0h2.6v10.4h-6.7c-10.8,0-21.5,0-32.3,0-8.5,0-14.7-6-14.8-14.5-.1-9.6-.1-19.3,0-28.9,0-7.6,6-13.8,13.7-13.9,13.1-.2,26.3,0,39.4,0s.4,0,.8.2h0Z"/>
        <path class="cls-1" d="M362.6,102.3h-10.4v-46.8h-24.1v-10.3h58.5v10.2h-24v46.9Z"/>
      </g>
      <g>
        <path class="cls-1" d="M225.3,121.2v21.7h-2.6v-21.1h1.1s-11,21.1-11,21.1h-2.9l-11-21h1.1s0,21,0,21h-2.6v-21.7h4.1l10.7,20.8h-1.7l10.7-20.8h4.1Z"/>
        <path class="cls-1" d="M238.5,143.4c-1.9,0-3.5-.4-5-1.1-1.4-.7-2.6-1.7-3.4-3s-1.2-2.8-1.2-4.5.4-3.2,1.2-4.5c.8-1.3,1.8-2.3,3.2-3,1.4-.7,2.9-1.1,4.7-1.1s3.3.4,4.6,1.2c1.3.8,2.3,1.9,3.1,3.3s1.1,3,1.1,4.9h-15.8v-2.1h14.7l-1.6,1c0-1.2-.3-2.3-.9-3.2-.5-.9-1.2-1.6-2.1-2.1-.9-.5-1.9-.7-3.1-.7s-2.4.3-3.3.8c-.9.5-1.7,1.2-2.2,2.2s-.8,2-.8,3.3.3,2.5.9,3.4c.6,1,1.4,1.7,2.5,2.2,1.1.5,2.4.8,3.8.8s2.6-.2,3.9-.7c1.3-.4,2.4-1.1,3.5-1.8v2.1c-1,.8-2.2,1.5-3.6,1.9-1.4.5-2.8.7-4.2.7Z"/>
        <path class="cls-1" d="M266.6,134.8c-.4,1.7-1.1,3.2-2,4.5-.9,1.3-1.9,2.3-3.2,3-1.2.7-2.6,1.1-4.1,1.1s-3-.4-4.3-1.1c-1.2-.7-2.2-1.7-2.9-3s-1.1-2.8-1.1-4.5.4-3.2,1.1-4.5,1.7-2.3,2.9-3c1.2-.7,2.7-1.1,4.3-1.1s2.9.4,4.1,1.1c1.2.7,2.3,1.7,3.2,3,.9,1.3,1.5,2.8,1.9,4.5ZM251.9,134.8c0,1.2.3,2.3.8,3.3.5.9,1.2,1.7,2.1,2.2.9.5,1.9.8,3.1.8s2.2-.3,3.2-.8c1-.5,1.8-1.3,2.6-2.2.8-.9,1.4-2,1.9-3.3-.5-1.2-1.1-2.3-1.9-3.3-.8-.9-1.6-1.7-2.6-2.2-1-.5-2-.8-3.2-.8s-2.2.3-3.1.8c-.9.5-1.6,1.3-2.1,2.2s-.8,2-.8,3.3ZM265.6,143l-.6-6.2.7-2-.7-2,.6-6.2h2.7l-.8,8.1.8,8.2h-2.7Z"/>
        <path class="cls-1" d="M288.2,138.2c0,1-.3,2-.9,2.7-.6.8-1.5,1.4-2.8,1.8-1.2.4-2.7.6-4.4.6s-3.3-.2-4.7-.7c-1.3-.5-2.4-1.2-3.1-2.1s-1.2-1.9-1.2-3.1h2.7c.1.8.5,1.4,1,2s1.3,1,2.2,1.3c.9.3,1.9.5,3.1.5,1.7,0,3-.3,4-.8,1-.5,1.4-1.2,1.4-2.1s-.3-1.2-.9-1.6c-.6-.3-1.8-.6-3.4-.8l-3.2-.3c-1.6-.2-2.8-.4-3.8-.9-.9-.4-1.6-.9-2-1.6s-.6-1.3-.6-2.1.3-2,1-2.7c.6-.7,1.6-1.3,2.7-1.7s2.5-.6,4-.6,3.1.2,4.3.7c1.3.5,2.3,1.1,3,1.9.8.8,1.2,1.8,1.2,2.9h-2.7c0-.6-.4-1.2-.9-1.7-.5-.5-1.2-.9-2-1.2s-1.9-.5-3.2-.5-2.7.2-3.6.7c-.9.4-1.3,1.1-1.3,1.9s.3,1.1.8,1.5c.6.4,1.6.6,3,.8l3.6.4c1.6.2,2.9.4,3.9.8.9.4,1.6.9,2,1.5.4.6.6,1.4.6,2.2Z"/>
        <path class="cls-1" d="M298.3,143.4c-1.5,0-2.7-.3-3.8-.9-1-.6-1.8-1.5-2.4-2.7-.6-1.2-.8-2.6-.8-4.2v-9h2.7v8.5c0,1.9.4,3.4,1.3,4.4.9,1,2.1,1.5,3.8,1.5s2.2-.3,3.1-.8c.9-.5,1.5-1.3,2-2.2.5-1,.7-2.1.7-3.4l1,.6c-.1,1.6-.5,3.1-1.2,4.3-.7,1.2-1.6,2.2-2.7,2.8-1.1.7-2.4,1-3.8,1ZM305.8,143l-.9-5.6v-10.8h2.7v11.2l.9,5.2h-2.7Z"/>
        <path class="cls-1" d="M311.3,126.7h2.7l.9,5.6v10.8h-2.7v-11.2l-.9-5.1ZM323.6,126.6v2.4c-.4-.1-.8-.2-1.3-.3s-1,0-1.4,0c-1.2,0-2.2.3-3.1.8-.9.5-1.6,1.3-2.1,2.3s-.8,2.2-.8,3.5l-.8-1c0-1.1.2-2.2.6-3.2.3-1,.8-1.8,1.4-2.5.6-.7,1.3-1.3,2.2-1.7.9-.4,1.8-.6,2.9-.6s.8,0,1.3,0c.4,0,.8.1,1.1.2Z"/>
        <path class="cls-1" d="M333.9,143.4c-1.9,0-3.5-.4-5-1.1-1.4-.7-2.6-1.7-3.4-3s-1.2-2.8-1.2-4.5.4-3.2,1.2-4.5c.8-1.3,1.8-2.3,3.2-3,1.4-.7,2.9-1.1,4.7-1.1s3.3.4,4.6,1.2c1.3.8,2.3,1.9,3.1,3.3.7,1.4,1.1,3,1.1,4.9h-15.8v-2.1h14.7l-1.6,1c0-1.2-.3-2.3-.9-3.2s-1.2-1.6-2.1-2.1c-.9-.5-1.9-.7-3.1-.7s-2.4.3-3.3.8c-.9.5-1.7,1.2-2.2,2.2s-.8,2-.8,3.3.3,2.5.9,3.4c.6,1,1.4,1.7,2.5,2.2,1.1.5,2.4.8,3.8.8s2.6-.2,3.9-.7c1.3-.4,2.4-1.1,3.5-1.8v2.1c-1,.8-2.2,1.5-3.6,1.9-1.4.5-2.8.7-4.2.7Z"/>
        <path class="cls-1" d="M346.7,143.2c-.3,0-.7,0-1-.2-.3-.2-.5-.4-.7-.7s-.2-.6-.2-1,0-.7.2-1,.4-.5.7-.7c.3-.2.6-.2,1-.2s.7,0,.9.2c.3.2.5.4.7.7.2.3.3.6.3,1s0,.7-.3.9c-.2.3-.4.5-.7.7-.3.2-.6.3-.9.3Z"/>
        <path class="cls-1" d="M359.8,121.2h2.7v21.7h-2.7v-21.7Z"/>
        <path class="cls-1" d="M366.4,126.7h2.7l.9,5.5v10.8h-2.7v-11.2l-.9-5.2ZM376.3,126.3c1.4,0,2.6.3,3.6.9,1,.6,1.7,1.5,2.3,2.6.5,1.2.8,2.5.8,4.2v9h-2.7v-8.5c0-2-.4-3.4-1.2-4.4-.8-1-2-1.5-3.5-1.5s-2.1.3-2.9.8c-.8.5-1.5,1.3-1.9,2.2-.4,1-.7,2.1-.7,3.3l-1.1-.8c.1-1.6.5-3,1.2-4.2.6-1.2,1.5-2.1,2.6-2.7,1.1-.6,2.2-1,3.6-1ZM389.1,126.3c1.4,0,2.6.3,3.6.9s1.8,1.5,2.3,2.6c.5,1.2.8,2.5.8,4.2v9h-2.7v-8.5c0-2-.4-3.4-1.2-4.4-.8-1-2-1.5-3.5-1.5s-2.1.3-2.9.8c-.8.5-1.5,1.3-1.9,2.2-.4,1-.7,2.1-.7,3.3l-1.1-.8c.1-1.6.5-3,1.2-4.2.6-1.2,1.5-2.1,2.6-2.7,1.1-.6,2.2-1,3.6-1Z"/>
        <path class="cls-1" d="M399.9,126.7h2.7v6.7c-.1,0-.1,2.6-.1,2.6v.8c.1,0,.1,10.9.1,10.9h-2.7v-21.1ZM401.3,134.8c.4-1.7,1.1-3.2,2-4.5.9-1.3,1.9-2.3,3.2-3,1.2-.7,2.6-1.1,4.1-1.1s3,.4,4.3,1.1c1.2.7,2.2,1.7,2.9,3,.7,1.3,1.1,2.8,1.1,4.5s-.4,3.2-1.1,4.5c-.7,1.3-1.7,2.3-2.9,3-1.2.7-2.7,1.1-4.3,1.1s-2.9-.4-4.1-1.1c-1.2-.7-2.3-1.7-3.2-3-.9-1.3-1.5-2.8-2-4.5ZM416.1,134.8c0-1.2-.3-2.3-.8-3.3s-1.2-1.7-2.1-2.2-1.9-.8-3.1-.8-2.2.3-3.2.8c-1,.5-1.8,1.3-2.6,2.2-.8.9-1.4,2-1.9,3.3.5,1.2,1.1,2.3,1.9,3.3.8.9,1.6,1.7,2.6,2.2,1,.5,2,.8,3.2.8s2.2-.3,3.1-.8c.9-.5,1.6-1.3,2.1-2.2.5-.9.8-2,.8-3.3Z"/>
        <path class="cls-1" d="M421.4,126.7h2.7l.9,5.6v10.8h-2.7v-11.2l-.9-5.1ZM433.7,126.6v2.4c-.4-.1-.8-.2-1.3-.3s-1,0-1.4,0c-1.2,0-2.2.3-3.1.8-.9.5-1.6,1.3-2.1,2.3s-.8,2.2-.8,3.5l-.8-1c0-1.1.2-2.2.6-3.2.3-1,.8-1.8,1.4-2.5.6-.7,1.3-1.3,2.2-1.7.9-.4,1.8-.6,2.9-.6s.8,0,1.3,0,.8.1,1.1.2Z"/>
        <path class="cls-1" d="M444,143.4c-1.9,0-3.6-.4-5.1-1.1-1.5-.7-2.6-1.7-3.4-3-.8-1.3-1.2-2.8-1.2-4.5s.4-3.2,1.2-4.5,1.9-2.3,3.4-3c1.5-.7,3.1-1.1,5.1-1.1s3.6.4,5.1,1.1c1.5.7,2.6,1.7,3.4,3s1.2,2.8,1.2,4.5-.4,3.2-1.2,4.5c-.8,1.3-2,2.3-3.4,3-1.4.7-3.1,1.1-5.1,1.1ZM444,141.1c1.4,0,2.7-.3,3.7-.8,1-.5,1.9-1.2,2.4-2.2.6-.9.9-2.1.9-3.4s-.3-2.4-.9-3.3c-.6-.9-1.4-1.7-2.4-2.2-1-.5-2.3-.8-3.7-.8s-2.6.3-3.7.8c-1.1.5-1.9,1.3-2.4,2.2-.6.9-.8,2.1-.8,3.3s.3,2.4.8,3.4c.6.9,1.4,1.7,2.4,2.2,1.1.5,2.3.8,3.7.8Z"/>
        <path class="cls-1" d="M464.7,141.7h-1l7.2-15.1h2.8l-8.1,16.3h-3l-8.1-16.3h3l7.2,15.1Z"/>
        <path class="cls-1" d="M484,143.4c-1.9,0-3.5-.4-5-1.1-1.4-.7-2.6-1.7-3.4-3-.8-1.3-1.2-2.8-1.2-4.5s.4-3.2,1.2-4.5c.8-1.3,1.8-2.3,3.2-3,1.4-.7,2.9-1.1,4.7-1.1s3.3.4,4.6,1.2c1.3.8,2.3,1.9,3.1,3.3.7,1.4,1.1,3,1.1,4.9h-15.8v-2.1h14.7l-1.6,1c0-1.2-.3-2.3-.9-3.2-.5-.9-1.2-1.6-2.1-2.1-.9-.5-1.9-.7-3.1-.7s-2.4.3-3.3.8c-.9.5-1.7,1.2-2.2,2.2-.5.9-.8,2-.8,3.3s.3,2.5.9,3.4c.6,1,1.4,1.7,2.5,2.2,1.1.5,2.4.8,3.8.8s2.6-.2,3.9-.7c1.3-.4,2.4-1.1,3.5-1.8v2.1c-1,.8-2.2,1.5-3.6,1.9-1.4.5-2.8.7-4.2.7Z"/>
        <path class="cls-1" d="M496.9,143.2c-.3,0-.7,0-1-.2-.3-.2-.5-.4-.7-.7s-.2-.6-.2-1,0-.7.2-1,.4-.5.7-.7c.3-.2.6-.2,1-.2s.7,0,.9.2c.3.2.5.4.7.7.2.3.3.6.3,1s0,.7-.3.9c-.2.3-.4.5-.7.7-.3.2-.6.3-.9.3Z"/>
        <path class="cls-1" d="M532.3,134.6c-.2,1.7-.8,3.2-1.8,4.6-1,1.3-2.4,2.4-4,3.1s-3.5,1.1-5.7,1.1-4.5-.5-6.3-1.4c-1.8-.9-3.2-2.3-4.2-4-1-1.7-1.5-3.6-1.5-5.9s.5-4.2,1.5-5.9c1-1.7,2.4-3,4.2-3.9,1.8-.9,3.9-1.4,6.3-1.4s4,.4,5.7,1.1,3,1.8,4,3.1c1,1.3,1.6,2.8,1.8,4.6h-2.8c-.2-1.3-.7-2.4-1.5-3.3-.8-.9-1.8-1.7-3-2.2-1.2-.5-2.7-.8-4.3-.8s-3.5.4-4.9,1.1c-1.4.7-2.4,1.7-3.2,3-.8,1.3-1.1,2.9-1.1,4.7s.4,3.3,1.1,4.6,1.8,2.3,3.2,3.1c1.4.7,3,1.1,4.9,1.1s3-.3,4.3-.8c1.2-.5,2.2-1.2,3-2.2.8-.9,1.3-2.1,1.5-3.3h2.8Z"/>
        <path class="cls-1" d="M544.3,143.4c-1.9,0-3.6-.4-5.1-1.1-1.5-.7-2.6-1.7-3.4-3-.8-1.3-1.2-2.8-1.2-4.5s.4-3.2,1.2-4.5,1.9-2.3,3.4-3c1.5-.7,3.1-1.1,5.1-1.1s3.6.4,5.1,1.1c1.5.7,2.6,1.7,3.4,3s1.2,2.8,1.2,4.5-.4,3.2-1.2,4.5c-.8,1.3-2,2.3-3.4,3-1.4.7-3.1,1.1-5.1,1.1ZM544.3,141.1c1.4,0,2.7-.3,3.7-.8,1-.5,1.9-1.2,2.4-2.2.6-.9.9-2.1.9-3.4s-.3-2.4-.9-3.3c-.6-.9-1.4-1.7-2.4-2.2-1-.5-2.3-.8-3.7-.8s-2.6.3-3.7.8c-1.1.5-1.9,1.3-2.4,2.2-.6.9-.8,2.1-.8,3.3s.3,2.4.8,3.4c.6.9,1.4,1.7,2.4,2.2,1.1.5,2.3.8,3.7.8Z"/>
        <path class="cls-1" d="M556.6,126.7h2.7l.9,5.5v10.8h-2.7v-11.2l-.9-5.2ZM566.5,126.3c1.4,0,2.6.3,3.6.9,1,.6,1.7,1.5,2.3,2.6.5,1.2.8,2.5.8,4.2v9h-2.7v-8.5c0-2-.4-3.4-1.2-4.4-.8-1-2-1.5-3.5-1.5s-2.1.3-2.9.8c-.8.5-1.5,1.3-1.9,2.2-.4,1-.7,2.1-.7,3.3l-1.1-.8c.1-1.6.5-3,1.2-4.2.6-1.2,1.5-2.1,2.6-2.7,1.1-.6,2.2-1,3.6-1ZM579.3,126.3c1.4,0,2.6.3,3.6.9s1.8,1.5,2.3,2.6c.5,1.2.8,2.5.8,4.2v9h-2.7v-8.5c0-2-.4-3.4-1.2-4.4-.8-1-2-1.5-3.5-1.5s-2.1.3-2.9.8c-.8.5-1.5,1.3-1.9,2.2-.4,1-.7,2.1-.7,3.3l-1.1-.8c.1-1.6.5-3,1.2-4.2.6-1.2,1.5-2.1,2.6-2.7,1.1-.6,2.2-1,3.6-1Z"/>
        <path class="cls-1" d="M590.1,126.7h2.7v6.7c-.1,0-.1,2.6-.1,2.6v.8c.1,0,.1,10.9.1,10.9h-2.7v-21.1ZM591.5,134.8c.4-1.7,1.1-3.2,2-4.5.9-1.3,1.9-2.3,3.2-3,1.2-.7,2.6-1.1,4.1-1.1s3,.4,4.3,1.1c1.2.7,2.2,1.7,2.9,3,.7,1.3,1.1,2.8,1.1,4.5s-.4,3.2-1.1,4.5c-.7,1.3-1.7,2.3-2.9,3-1.2.7-2.7,1.1-4.3,1.1s-2.9-.4-4.1-1.1c-1.2-.7-2.3-1.7-3.2-3-.9-1.3-1.5-2.8-2-4.5ZM606.3,134.8c0-1.2-.3-2.3-.8-3.3s-1.2-1.7-2.1-2.2-1.9-.8-3.1-.8-2.2.3-3.2.8c-1,.5-1.8,1.3-2.6,2.2-.8.9-1.4,2-1.9,3.3.5,1.2,1.1,2.3,1.9,3.3.8.9,1.6,1.7,2.6,2.2,1,.5,2,.8,3.2.8s2.2-.3,3.1-.8c.9-.5,1.6-1.3,2.1-2.2.5-.9.8-2,.8-3.3Z"/>
        <path class="cls-1" d="M621,143.4c-1.9,0-3.5-.4-5-1.1-1.4-.7-2.6-1.7-3.4-3-.8-1.3-1.2-2.8-1.2-4.5s.4-3.2,1.2-4.5c.8-1.3,1.8-2.3,3.2-3,1.4-.7,2.9-1.1,4.7-1.1s3.3.4,4.6,1.2c1.3.8,2.3,1.9,3.1,3.3.7,1.4,1.1,3,1.1,4.9h-15.8v-2.1h14.7l-1.6,1c0-1.2-.3-2.3-.9-3.2-.5-.9-1.2-1.6-2.1-2.1-.9-.5-1.9-.7-3.1-.7s-2.4.3-3.3.8c-.9.5-1.7,1.2-2.2,2.2-.5.9-.8,2-.8,3.3s.3,2.5.9,3.4c.6,1,1.4,1.7,2.5,2.2,1.1.5,2.4.8,3.8.8s2.6-.2,3.9-.7c1.3-.4,2.4-1.1,3.5-1.8v2.1c-1,.8-2.2,1.5-3.6,1.9-1.4.5-2.8.7-4.2.7Z"/>
        <path class="cls-1" d="M630.2,128.8v-1.3l3.6-.7,1.1-4.4h1.6v4.2h7.9v2.1h-7.9v8.3c0,1.5.3,2.5,1,3.1.6.6,1.6.9,3,.9s1.7-.1,2.3-.3c.7-.2,1.3-.5,2-.9v2.3c-.5.3-1.1.6-2,.8s-1.8.4-2.8.4c-1.5,0-2.7-.3-3.6-.8s-1.5-1.2-1.9-2.1c-.4-.9-.6-1.9-.6-3v-8.7h-3.6Z"/>
        <path class="cls-1" d="M655.6,143.4c-1.9,0-3.5-.4-5-1.1-1.4-.7-2.6-1.7-3.4-3-.8-1.3-1.2-2.8-1.2-4.5s.4-3.2,1.2-4.5c.8-1.3,1.8-2.3,3.2-3,1.4-.7,2.9-1.1,4.7-1.1s3.3.4,4.6,1.2c1.3.8,2.3,1.9,3.1,3.3.7,1.4,1.1,3,1.1,4.9h-15.8v-2.1h14.7l-1.6,1c0-1.2-.3-2.3-.9-3.2-.5-.9-1.2-1.6-2.1-2.1-.9-.5-1.9-.7-3.1-.7s-2.4.3-3.3.8c-.9.5-1.7,1.2-2.2,2.2-.5.9-.8,2-.8,3.3s.3,2.5.9,3.4c.6,1,1.4,1.7,2.5,2.2,1.1.5,2.4.8,3.8.8s2.6-.2,3.9-.7c1.3-.4,2.4-1.1,3.5-1.8v2.1c-1,.8-2.2,1.5-3.6,1.9-1.4.5-2.8.7-4.2.7Z"/>
      </g>
    </g>
  </g>
</svg>